<svg viewBox="0 0 16667 16667" xmlns="http://www.w3.org/2000/svg"><path fill="currentColor" d="M4019.272,16222.329l-2431.295,0c-351.899,0 -653.137,-125.29 -903.74,-375.893c-250.599,-250.599 -375.893,-551.84 -375.893,-903.74l0,-2431.295c511.851,0 959.722,-162.623 1343.611,-487.858c383.889,-325.235 575.833,-738.456 575.833,-1239.643c0,-501.182 -191.944,-914.408 -575.833,-1239.643c-383.889,-325.235 -831.761,-487.858 -1343.611,-487.858l0,-2431.295c0,-351.899 125.29,-653.141 375.893,-903.74c250.599,-250.599 551.84,-375.893 903.74,-375.893l2559.261,0c0,-447.872 154.627,-826.432 463.865,-1135.67c309.238,-309.238 687.802,-463.865 1135.67,-463.865c447.872,0 826.432,154.627 1135.67,463.865c309.238,309.238 463.865,687.802 463.865,1135.67l2559.261,0c351.899,0 653.141,125.29 903.74,375.893c250.599,250.599 375.893,551.84 375.893,903.74l0,2559.261c447.872,0 826.432,154.627 1135.67,463.865c309.238,309.238 463.865,687.802 463.865,1135.67c0,447.872 -154.627,826.432 -463.865,1135.67c-309.238,309.238 -687.802,463.865 -1135.67,463.865l0,2559.261c0,351.899 -125.29,653.137 -375.893,903.74c-250.599,250.599 -551.84,375.893 -903.74,375.893l-2431.295,0c0,-533.172 -167.951,-986.387 -503.854,-1359.608c-335.903,-373.221 -743.785,-559.837 -1223.646,-559.837c-479.861,0 -887.743,186.62 -1223.646,559.837c-335.903,373.221 -503.854,826.432 -503.854,1359.608Zm-2431.295,-1279.627l1359.608,-0.002c255.927,-703.795 666.477,-1199.653 1231.642,-1487.57c565.165,-287.917 1087.684,-431.875 1567.545,-431.875c479.861,0 1002.384,143.958 1567.545,431.875c565.165,287.917 975.719,783.775 1231.642,1487.57l1359.608,0l0,-3838.889l1279.628,0c85.304,0 159.955,-31.989 223.934,-95.972c63.983,-63.983 95.972,-138.63 95.972,-223.934c0,-85.304 -31.989,-159.955 -95.972,-223.934c-63.983,-63.983 -138.634,-95.972 -223.934,-95.972l-1279.628,0l0,-3838.889l-3838.889,0l0,-1279.628c0,-85.304 -31.989,-159.955 -95.972,-223.934c-63.983,-63.983 -138.63,-95.972 -223.934,-95.972c-85.304,0 -159.955,31.989 -223.934,95.972c-63.983,63.983 -95.972,138.634 -95.972,223.934l0,1279.628l-3838.889,0l0,1407.594c575.833,213.266 1039.698,570.509 1391.597,1071.691c351.899,501.182 527.847,1061.023 527.847,1679.514c0,607.823 -175.948,1162.335 -527.847,1663.517c-351.899,501.182 -815.764,863.75 -1391.597,1087.684l0,1407.592Zm12403.694,-8446.685l-1587.205,0l0,-2380.82l-2380.82,0l0,-1587.205l2380.82,0l0,-2380.82l1587.205,0l0,2380.82l2380.82,0l0,1587.205l-2380.82,0l-0,2380.82Z"/></svg>