<svg viewBox="0 -960 960 960" xmlns="http://www.w3.org/2000/svg"><path fill="currentColor" d="M240,-80L720,-80C742,-80 760.833,-87.833 776.5,-103.5C792.167,-119.167 800,-138 800,-160L800,-560C800,-582 792.167,-600.833 776.5,-616.5C760.833,-632.167 742,-640 720,-640L600,-640L600,-720C600,-753.333 611.667,-781.667 635,-805C658.333,-828.333 686.667,-840 720,-840C753.333,-840 781.667,-828.333 805,-805C828.333,-781.667 840,-753.333 840,-720L920,-720C920,-775.333 900.5,-822.5 861.5,-861.5C822.5,-900.5 775.333,-920 720,-920C664.667,-920 617.5,-900.5 578.5,-861.5C539.5,-822.5 520,-775.333 520,-720L520,-640L240,-640C218,-640 199.167,-632.167 183.5,-616.5C167.833,-600.833 160,-582 160,-560L160,-160C160,-138 167.833,-119.167 183.5,-103.5C199.167,-87.833 218,-80 240,-80ZM240,-160L240,-560L720,-560L720,-160L240,-160ZM536.5,-303.5C552.167,-319.167 560,-338 560,-360C560,-382 552.167,-400.833 536.5,-416.5C520.833,-432.167 502,-440 480,-440C458,-440 439.167,-432.167 423.5,-416.5C407.833,-400.833 400,-382 400,-360C400,-338 407.833,-319.167 423.5,-303.5C439.167,-287.833 458,-280 480,-280C502,-280 520.833,-287.833 536.5,-303.5ZM231.623,-646.727L231.623,-764.116L349.012,-764.116L349.012,-842.375L231.623,-842.375L231.623,-959.764L153.364,-959.764L153.364,-842.375L35.975,-842.375L35.975,-764.116L153.364,-764.116L153.364,-646.727L231.623,-646.727Z"/></svg>
